<?xml version="1.0" standalone="no"?>
<!DOCTYPE svg PUBLIC "-//W3C//DTD SVG 20010904//EN"
 "http://www.w3.org/TR/2001/REC-SVG-20010904/DTD/svg10.dtd">
<svg version="1.0" xmlns="http://www.w3.org/2000/svg"
 width="560.000000pt" height="560.000000pt" viewBox="0 0 560.000000 560.000000"
 preserveAspectRatio="xMidYMid meet">
<metadata>
Created by potrace 1.14, written by Peter Selinger 2001-2017
</metadata>
<g transform="translate(0.000000,560.000000) scale(0.100000,-0.100000)"
fill="#000000" stroke="none">
<path d="M2530 5590 c-500 -40 -1038 -256 -1470 -590 -109 -85 -348 -320 -437
-430 -255 -317 -444 -691 -539 -1064 -75 -296 -79 -329 -79 -711 0 -384 0
-385 76 -692 70 -287 201 -585 369 -841 385 -588 987 -1018 1655 -1182 302
-74 355 -80 690 -80 287 0 315 2 438 25 385 74 619 154 907 311 246 134 439
280 650 493 220 221 370 429 510 705 126 249 205 485 262 786 31 163 31 170
32 475 0 338 -8 407 -74 675 -247 999 -1029 1792 -2014 2041 -246 63 -370 79
-631 83 -132 3 -287 1 -345 -4z m1211 -987 c107 -34 179 -99 230 -210 16 -34
33 -64 39 -68 5 -3 10 -13 10 -22 0 -8 19 -36 41 -61 23 -26 48 -61 55 -78 7
-17 20 -36 28 -44 13 -10 16 -39 16 -160 l0 -148 -41 -74 c-23 -40 -54 -89
-69 -108 -29 -37 -33 -56 -49 -210 -6 -52 -17 -144 -26 -205 -21 -143 -34
-247 -64 -532 -5 -51 -13 -99 -18 -105 -4 -7 -11 -56 -15 -108 -26 -340 -75
-525 -205 -785 -157 -314 -449 -561 -783 -664 -41 -13 -88 -29 -103 -37 -34
-17 -417 -21 -417 -4 0 5 -17 12 -37 16 -120 21 -266 77 -348 132 -112 76
-229 219 -251 306 -3 15 -13 30 -20 33 -8 3 -14 19 -14 37 0 17 -6 41 -14 52
-31 44 -66 118 -72 152 -4 21 -15 49 -25 64 -25 35 -25 107 0 150 10 18 24 57
30 86 30 146 157 280 311 328 58 18 222 18 281 0 94 -29 220 -106 280 -172 38
-42 82 -110 117 -181 36 -72 92 -152 108 -153 6 0 30 20 52 44 l41 44 -20 64
c-10 34 -19 69 -19 76 0 8 -6 28 -14 45 -8 18 -17 46 -20 62 -45 220 -53 301
-36 347 6 18 14 64 17 103 2 38 9 77 14 87 5 9 9 37 9 62 0 25 4 47 9 50 5 3
12 27 15 53 4 27 16 93 28 148 11 55 24 118 28 140 4 22 12 52 18 66 6 14 12
46 14 70 l3 44 -154 12 c-85 7 -168 17 -184 23 -17 5 -52 10 -78 10 -26 0 -51
5 -54 10 -3 6 -18 10 -33 10 -15 0 -55 9 -87 21 -213 75 -324 178 -380 352
-13 41 -40 100 -60 130 -43 64 -63 124 -77 227 -12 89 -12 130 1 275 15 159
22 191 46 187 21 -3 87 -27 117 -43 10 -5 27 -9 38 -9 11 0 28 -4 38 -10 33
-18 218 -70 357 -99 303 -64 743 -122 796 -106 10 4 34 30 53 58 69 103 196
207 254 207 10 0 22 4 28 9 26 25 190 28 265 4z"/>
</g>
</svg>
